<svg t="1732696793960" class="icon" viewBox="0 0 1024 1024" version="1.1" xmlns="http://www.w3.org/2000/svg" p-id="11307" width="200" height="200"><path d="M512 960c-246.4 0-448-201.6-448-448s201.6-448 448-448 448 201.6 448 448-201.6 448-448 448z m0-64c211.2 0 384-172.8 384-384s-172.8-384-384-384-384 172.8-384 384 172.8 384 384 384z m32-576v211.2l3.2 3.2 156.8 156.8c12.8 12.8 12.8 32 0 44.8s-32 12.8-44.8 0l-156.8-156.8c-3.2-3.2-22.4-22.4-22.4-35.2v-224c0-19.2 12.8-32 32-32s32 12.8 32 32z" fill="#374E6B" p-id="11308"></path></svg>