<svg t="1732091788967" class="icon" viewBox="0 0 1024 1024" version="1.1" xmlns="http://www.w3.org/2000/svg" p-id="16961" width="200" height="200"><path d="M128 234.667A42.667 42.667 0 0 1 170.667 192H704a42.667 42.667 0 1 1 0 85.333H170.667A42.667 42.667 0 0 1 128 234.667zM128 512a42.667 42.667 0 0 1 42.667-42.667h682.666a42.667 42.667 0 1 1 0 85.334H170.667A42.667 42.667 0 0 1 128 512z m42.667 234.667a42.667 42.667 0 1 0 0 85.333H704a42.667 42.667 0 1 0 0-85.333H170.667z" fill="#444C67" p-id="16962"></path></svg>